<svg width="989" height="389" viewBox="0 0 989 389" fill="none" xmlns="http://www.w3.org/2000/svg">
<rect width="106" height="388" fill="black"/>
<rect x="146" width="106" height="388" fill="black"/>
<path d="M266 0H365L370.5 388H266V0Z" fill="black"/>
<path d="M621.25 2H522.724L517.25 388H621.25V2Z" fill="black"/>
<path d="M485 388L404 388.001L365.5 202.001L269.501 0.500559L408 0.500603L485 388Z" fill="black"/>
<path d="M405.367 385.025L485.367 385.025L523.867 199.025L621 0.000116289L482 1.0797e-05L405.367 385.025Z" fill="black"/>
<rect x="106" y="141" width="40" height="95" fill="black"/>
<rect x="782" width="207" height="83" fill="black"/>
<rect x="648" y="112" width="341" height="83" fill="black"/>
<rect x="648" y="195" width="107" height="193" fill="black"/>
<rect x="648" width="109" height="83" fill="#FEF102"/>
</svg>
